<svg width="25" height="25" viewBox="0 0 25 25" fill="none" xmlns="http://www.w3.org/2000/svg">
<path d="M10.5899 9.42967L10.5899 9.42976L10.5991 9.43504C11.0873 9.71403 11.7418 9.38045 11.7418 8.77891V7.8662C11.7418 5.72489 13.4667 3.99998 15.6081 3.99998H19.9496C20.4411 3.99998 20.9439 3.89564 21.3984 3.66435V4.06735C21.3984 6.20866 19.6735 7.93356 17.5322 7.93356H14.8434C14.0295 7.93356 13.2432 8.22577 12.6076 8.80363L12.5988 8.81163L12.5904 8.82004C12.426 8.98437 12.3699 9.1977 12.3699 9.37094V14.9392H11.7172V13.4905C11.7172 13.3172 11.6611 13.1039 11.4967 12.9396L11.4883 12.9312L11.4795 12.9232C10.8439 12.3453 10.0576 12.0531 9.24374 12.0531H6.55495C4.56126 12.0531 2.9223 10.5554 2.69161 8.59213C3.16251 8.83152 3.67627 8.93356 4.16216 8.93356H8.77506C9.44927 8.93356 10.051 9.10634 10.5899 9.42967Z" fill="#625EEE" stroke="#625EEE" style="fill:#625EEE;fill:color(display-p3 0.3843 0.3686 0.9333);fill-opacity:1;stroke:#625EEE;stroke:color(display-p3 0.3843 0.3686 0.9333);stroke-opacity:1;"/>
<path d="M20.5843 21.6804V21.7951C20.5468 21.8729 20.4693 21.9204 20.3689 21.9204H13.6099C13.4667 21.9204 13.3699 21.8236 13.3699 21.6804V20.6936C13.3699 20.5504 13.4667 20.4536 13.6099 20.4536H20.3442C20.4875 20.4536 20.5843 20.5504 20.5843 20.6936V21.6804Z" fill="#625EEE" stroke="#625EEE" style="fill:#625EEE;fill:color(display-p3 0.3843 0.3686 0.9333);fill-opacity:1;stroke:#625EEE;stroke:color(display-p3 0.3843 0.3686 0.9333);stroke-opacity:1;"/>
<path d="M11.4572 21.6804C11.4572 21.8128 11.3466 21.9204 11.2172 21.9204H4.48283C4.35339 21.9204 4.2428 21.8128 4.2428 21.6804V20.6936C4.2428 20.5612 4.35339 20.4536 4.48283 20.4536H11.2172C11.3466 20.4536 11.4572 20.5612 11.4572 20.6936V21.6804Z" fill="#625EEE" stroke="#625EEE" style="fill:#625EEE;fill:color(display-p3 0.3843 0.3686 0.9333);fill-opacity:1;stroke:#625EEE;stroke:color(display-p3 0.3843 0.3686 0.9333);stroke-opacity:1;"/>
<path d="M15.6508 18.3996V18.5144C15.6134 18.5921 15.5358 18.6396 15.4354 18.6396H8.67644C8.53323 18.6396 8.4364 18.5428 8.4364 18.3996V17.4129C8.4364 17.2697 8.53323 17.1729 8.67644 17.1729H15.4108C15.554 17.1729 15.6508 17.2697 15.6508 17.4129V18.3996Z" fill="#625EEE" stroke="#625EEE" style="fill:#625EEE;fill:color(display-p3 0.3843 0.3686 0.9333);fill-opacity:1;stroke:#625EEE;stroke:color(display-p3 0.3843 0.3686 0.9333);stroke-opacity:1;"/>
</svg>
